<?xml version="1.0" encoding="UTF-8"?>
<svg id="Layer_2" data-name="Layer 2" xmlns="http://www.w3.org/2000/svg" viewBox="0 0 722.13 909.52">
  <defs>
    <style>
      .cls-1 {
        fill: #1c85e8;
      }

      .cls-2 {
        opacity: .4;
      }
    </style>
  </defs>
  <g id="Layer_1-2" data-name="Layer 1">
    <g class="cls-2">
      <path class="cls-1" d="m354.89,904.33c.6,3.46,3.39,5.19,6.17,5.19s5.57-1.73,6.17-5.19l30.68-216.55h-73.71l30.68,216.55Z"/>
      <polygon class="cls-1" points="186.45 865.45 206.01 899.17 295.53 745.08 275.94 711.39 186.45 865.45"/>
      <polygon class="cls-1" points="426.6 745.08 516.12 899.17 535.68 865.45 446.19 711.39 426.6 745.08"/>
      <path class="cls-1" d="m520.73,283.86l16.65-33.7c6.58,3.05,13.88,4.8,21.6,4.8,28.42,0,51.45-23.04,51.45-51.45s-23.04-51.45-51.45-51.45-51.45,23.04-51.45,51.45c0,19.77,11.16,36.9,27.51,45.52l-17.21,34.83h-124.14c-.8-2.64-1.62-5.26-2.43-7.86-.88-2.83-1.77-5.65-2.63-8.48-1.38-4.54-2.68-9.11-3.93-13.7l30.32-87.35c4.93,1.57,10.18,2.44,15.64,2.44,28.42,0,51.45-23.04,51.45-51.45s-23.04-51.45-51.45-51.45-51.45,23.04-51.45,51.45c0,22.04,13.89,40.8,33.37,48.12l-29.05,83.7c-15.03-57.43-19.85-117.83-14.15-176.93,17.61-2.54,31.15-17.65,31.15-35.96,0-20.09-16.29-36.38-36.38-36.38s-36.38,16.29-36.38,36.38,16.29,36.38,36.38,36.38c.87,0,1.73-.07,2.59-.13-5.77,60.52-.59,122.41,15.25,181.08l-10.47,30.15h-92.22l15.17-81.06c2.67.43,5.39.71,8.17.71,28.42,0,51.45-23.04,51.45-51.45s-23.04-51.45-51.45-51.45-51.45,23.04-51.45,51.45c0,24.73,17.45,45.37,40.71,50.31l-15.25,81.49h-99.66l-44.76-46.24c27.61-.92,49.73-23.53,49.73-51.36s-23.04-51.45-51.45-51.45-51.45,23.04-51.45,51.45,23.04,51.45,51.45,51.45h0l-.93.9,43.8,45.25h-60.66l208.36,360.89c8.88,15.38,24.42,23.08,39.97,23.08s31.09-7.69,39.97-23.08l208.36-360.89h-88.67Zm-137.51-25.76c.95,3.4,1.91,6.8,2.93,10.17.86,2.84,1.75,5.67,2.63,8.51.73,2.34,1.47,4.71,2.19,7.08h-16.69l8.94-25.76Z"/>
      <path class="cls-1" d="m624.34,301.52l-195.52,338.64c30.79,17.78,64.39,26.22,97.57,26.22,67.57,0,133.3-35.07,169.51-97.79,53.99-93.5,21.94-213.09-71.56-267.08Z"/>
      <path class="cls-1" d="m293.3,640.16L97.79,301.52C4.28,355.51-27.76,475.09,26.22,568.6c36.21,62.72,101.94,97.79,169.51,97.79,33.17,0,66.78-8.45,97.57-26.22Z"/>
      <path class="cls-1" d="m191.89,234.82c2.96.84,6.02,1.26,9.08,1.26,8.28,0,16.57-3.09,22.99-9.31,8.79-8.51,11.84-20.72,9.08-31.79-2.96-.84-6.02-1.26-9.08-1.26-8.28,0-16.57,3.09-22.99,9.31-8.79,8.51-11.84,20.72-9.08,31.79Z"/>
      <path class="cls-1" d="m504.99,164.05c8.28,0,16.57-3.09,22.99-9.31,8.79-8.51,11.84-20.72,9.08-31.79-2.96-.84-6.02-1.26-9.08-1.26-8.28,0-16.57,3.09-22.99,9.31-8.79,8.51-11.84,20.72-9.08,31.79,2.96.84,6.02,1.26,9.08,1.26Z"/>
      <path class="cls-1" d="m308.22,86.6c1.26,0,2.53-.15,3.76-.46,1.46-5.14.22-10.9-3.77-15.02-3.04-3.14-7.08-4.71-11.13-4.71-1.26,0-2.53.15-3.76.46-1.46,5.14-.22,10.9,3.77,15.02,3.04,3.14,7.08,4.71,11.13,4.71Z"/>
      <path class="cls-1" d="m479.26,46.48c1.26,0,2.53-.15,3.76-.46,1.46-5.14.22-10.9-3.77-15.02-3.04-3.14-7.08-4.71-11.13-4.71-1.26,0-2.53.15-3.76.46-1.46,5.14-.22,10.9,3.77,15.02,3.04,3.14,7.08,4.71,11.13,4.71Z"/>
      <path class="cls-1" d="m444.7,199.17c-1.46,5.14-.22,10.9,3.77,15.02,3.04,3.14,7.08,4.71,11.13,4.71,1.26,0,2.53-.15,3.76-.46,1.46-5.14.22-10.9-3.77-15.02-3.04-3.14-7.08-4.71-11.13-4.71-1.26,0-2.53.15-3.76.46Z"/>
      <path class="cls-1" d="m203.34,144.26c2.83,0,5.65-.34,8.41-1.03,3.26-11.49.49-24.37-8.42-33.58-6.79-7.02-15.83-10.54-24.87-10.54-2.82,0-5.65.34-8.41,1.03-3.26,11.49-.49,24.37,8.42,33.58,6.79,7.02,15.83,10.54,24.87,10.54Z"/>
    </g>
  </g>
</svg>