<?xml version="1.0" encoding="UTF-8"?>
<svg id="Layer_1" data-name="Layer 1" xmlns="http://www.w3.org/2000/svg" viewBox="0 0 1080 1080">
  <defs>
    <style>
      .cls-1 {
        fill: #0b2e4f;
      }
    </style>
  </defs>
  <path class="cls-1" d="m358.67,579.29l14.11-14.11-39.16-39.16,12.46-12.48-.09-.07.02-.02c14.72-14.7,14.72-38.56,0-53.28-14.06-14.06-36.43-14.68-51.24-1.89-.04.02-.06.02-.06.04l-3.84,3.86c-12.37,14.24-12.26,35.53.29,49.64l14.21,14.21-14.11,14.11-39.18-39.18-14.11,14.11,39.18,39.18-11.63,11.65-1.38,1.38c-9.67,10.16-12.55,24.37-8.73,36.96,1.73,5.72,4.87,11.1,9.41,15.62,14.72,14.7,38.58,14.7,53.28,0,4.43-4.47,7.54-9.74,9.32-15.36,3.62-11.63,1.51-24.68-6.41-34.64l-6.21-6.23-9.41-9.37,14.13-14.11,39.16,39.16Zm-54.82,26.48c-6.89,6.89-18.1,6.89-25.01,0-6.89-6.91-6.89-18.1,0-24.99l12.42-12.42,11.14,11.14c.5.4.99.83,1.45,1.29.46.46.86.94,1.29,1.43,5.57,6.93,5.16,17.11-1.29,23.56Zm3.46-106.08c-.11-.09-.22-.2-.33-.31l-.33-.33c-6.6-6.95-6.51-17.92.33-24.72,6.89-6.93,18.12-6.93,25.05,0,6.89,6.91,6.89,18.12,0,25.05l-12.52,12.52-12.2-12.2Z"/>
  <g>
    <path class="cls-1" d="m472.5,571.25h-18.84v-34.13h-32.81v34.13h-18.84v-80.74h18.84v33.75h32.81v-33.75h18.84v80.74Z"/>
    <path class="cls-1" d="m520.33,571.25c-1.63,0-2.85-.22-3.68-.66-.83-.44-1.53-1.37-2.08-2.77l-1.22-3.16c-1.44,1.22-2.82,2.29-4.15,3.21-1.33.93-2.7,1.71-4.13,2.36-1.43.65-2.94,1.13-4.55,1.44-1.61.31-3.39.47-5.35.47-2.62,0-5.01-.34-7.15-1.03-2.14-.69-3.96-1.69-5.46-3.03-1.5-1.34-2.65-2.99-3.46-4.97-.82-1.98-1.22-4.27-1.22-6.86,0-2.04.52-4.14,1.55-6.29,1.03-2.15,2.82-4.1,5.37-5.86,2.55-1.76,5.99-3.23,10.31-4.42,4.32-1.18,9.77-1.78,16.35-1.78v-2.46c0-3.39-.69-5.84-2.07-7.36-1.39-1.51-3.35-2.26-5.9-2.26-2.04,0-3.7.22-4.99.66s-2.45.94-3.46,1.5c-1.02.55-2,1.05-2.97,1.49-.96.44-2.1.67-3.43.67-1.18,0-2.19-.29-3.02-.86s-1.49-1.28-1.97-2.14l-3.1-5.37c3.47-3.07,7.32-5.35,11.55-6.84,4.23-1.5,8.77-2.25,13.6-2.25,3.47,0,6.61.56,9.39,1.69,2.79,1.13,5.16,2.69,7.09,4.71,1.94,2.01,3.43,4.41,4.46,7.18,1.03,2.77,1.55,5.8,1.55,9.09v35.91h-7.87Zm-19.73-10.47c2.22,0,4.16-.39,5.82-1.16,1.66-.77,3.34-2.03,5.04-3.77v-7.87c-3.43,0-6.26.22-8.48.67-2.22.45-3.97,1.01-5.27,1.68s-2.19,1.44-2.69,2.29c-.5.86-.75,1.79-.75,2.8,0,1.97.53,3.36,1.61,4.16,1.07.8,2.64,1.2,4.71,1.2Z"/>
    <path class="cls-1" d="m535.31,571.25v-57.46h10.2c.85,0,1.56.07,2.13.22s1.05.38,1.44.69c.39.31.68.73.89,1.25.2.52.38,1.14.52,1.88l.94,5.38c2.1-3.25,4.47-5.82,7.09-7.7,2.62-1.88,5.49-2.83,8.59-2.83,2.62,0,4.73.63,6.32,1.88l-2.22,12.64c-.15.78-.44,1.32-.89,1.64-.44.31-1.04.47-1.77.47-.63,0-1.37-.09-2.22-.25-.85-.17-1.92-.25-3.21-.25-4.51,0-8.05,2.4-10.64,7.2v35.24h-17.18Z"/>
    <path class="cls-1" d="m577.57,571.25v-57.46h10.64c1.07,0,1.97.24,2.69.72.72.48,1.23,1.2,1.53,2.16l.94,3.1c.96-1,1.96-1.91,2.99-2.74,1.04-.83,2.16-1.55,3.35-2.16,1.2-.61,2.49-1.09,3.88-1.44,1.38-.35,2.9-.52,4.57-.52,3.47,0,6.34.9,8.61,2.69,2.28,1.79,4,4.18,5.18,7.18.96-1.77,2.13-3.29,3.52-4.55,1.39-1.25,2.89-2.27,4.49-3.05,1.61-.78,3.31-1.35,5.1-1.72,1.79-.37,3.58-.55,5.35-.55,3.29,0,6.21.49,8.76,1.47,2.55.98,4.68,2.4,6.4,4.26,1.72,1.87,3.02,4.15,3.91,6.87.89,2.71,1.33,5.79,1.33,9.22v36.52h-17.18v-36.52c0-5.95-2.55-8.92-7.65-8.92-2.33,0-4.26.76-5.79,2.3-1.54,1.53-2.3,3.74-2.3,6.62v36.52h-17.18v-36.52c0-3.29-.64-5.6-1.94-6.93-1.29-1.33-3.2-1.99-5.71-1.99-1.55,0-3.02.35-4.4,1.05-1.39.71-2.69,1.65-3.91,2.83v41.56h-17.18Z"/>
    <path class="cls-1" d="m695.05,512.9c4.36,0,8.33.68,11.92,2.05,3.58,1.36,6.66,3.32,9.22,5.87,2.57,2.55,4.56,5.64,5.99,9.28,1.42,3.64,2.13,7.73,2.13,12.27s-.71,8.71-2.13,12.39c-1.42,3.68-3.42,6.8-5.99,9.36-2.57,2.57-5.64,4.55-9.22,5.93-3.58,1.39-7.56,2.08-11.92,2.08s-8.39-.69-12-2.08c-3.6-1.38-6.71-3.36-9.31-5.93-2.6-2.57-4.62-5.69-6.04-9.36-1.42-3.68-2.13-7.8-2.13-12.39s.71-8.63,2.13-12.27c1.42-3.64,3.43-6.74,6.04-9.28,2.6-2.55,5.71-4.51,9.31-5.87,3.6-1.37,7.6-2.05,12-2.05Zm0,46.49c3.95,0,6.86-1.39,8.73-4.18,1.87-2.79,2.8-7.03,2.8-12.72s-.93-9.92-2.8-12.69c-1.87-2.77-4.77-4.15-8.73-4.15s-7.04,1.38-8.92,4.15c-1.88,2.77-2.83,7-2.83,12.69s.94,9.93,2.83,12.72c1.88,2.79,4.86,4.18,8.92,4.18Z"/>
    <path class="cls-1" d="m729.1,571.25v-57.46h10.64c1.07,0,1.97.24,2.69.72.72.48,1.23,1.2,1.53,2.16l1,3.32c1.11-1.04,2.25-1.99,3.43-2.88,1.18-.89,2.45-1.64,3.8-2.25,1.35-.61,2.8-1.09,4.38-1.44,1.57-.35,3.28-.52,5.12-.52,3.14,0,5.92.54,8.34,1.63,2.42,1.09,4.46,2.6,6.12,4.55,1.66,1.94,2.92,4.25,3.77,6.93.85,2.68,1.28,5.59,1.28,8.73v36.52h-17.18v-36.52c0-2.8-.64-4.99-1.94-6.57-1.3-1.57-3.2-2.35-5.71-2.35-1.88,0-3.66.41-5.32,1.22-1.66.82-3.25,1.9-4.77,3.27v40.95h-17.18Z"/>
    <path class="cls-1" d="m811.34,586.16c-.52,1.14-1.14,1.98-1.88,2.52-.74.53-1.92.8-3.55.8h-12.85l11.09-23.27-22.94-52.42h15.18c1.33,0,2.37.3,3.11.89.74.59,1.25,1.29,1.55,2.1l9.42,24.77c.89,2.29,1.61,4.58,2.16,6.87.37-1.18.78-2.35,1.22-3.49.44-1.14.87-2.31,1.27-3.49l8.53-24.66c.3-.85.88-1.56,1.75-2.13.87-.57,1.8-.86,2.8-.86h13.85l-30.7,72.37Z"/>
  </g>
</svg>