<svg xmlns="http://www.w3.org/2000/svg" version="1.1" xmlns:xlink="http://www.w3.org/1999/xlink" viewBox="0 0 700 700" style="overflow: hidden; display: block;" width="700" height="700"><defs><linearGradient id="two-97" x1="350" y1="-350" x2="350" y2="350" spreadMethod="pad" gradientUnits="userSpaceOnUse"><stop offset="0%" stop-color="hsl(1.4, 100%, 50%)" stop-opacity="1"></stop><stop offset="100%" stop-color="hsl(167, 52%, 78%)" stop-opacity="1"></stop></linearGradient></defs><g id="two-0" transform="matrix(1 0 0 1 0 0)" opacity="1"><path transform="matrix(1 0 0 1 350 350)" id="two-96" d="M 268.294339 103.937781 C 258.293345 142.426697 192.599331 134.223721 153.206484 139.666165 C 125.483598 143.496308 92.547964 123.228866 68.429386 137.424734 C 39.329098 154.55277 53.70984 219.245826 21.142754 228.166662 C -6.258562 235.672482 -24.564885 190.142933 -51.997157 182.751048 C -80.034374 175.196155 -110.913967 185.269535 -139.951165 185.325292 C -190.481771 185.42232 -273.167905 227.898954 -293.025029 181.433416 C -319.761721 118.869734 -150.349421 96.774082 -154.362139 28.855284 C -156.544962 -8.090937 -248.151345 -8.812729 -239.039941 -44.68431 C -228.80945 -84.961739 -134.671954 -34.708445 -116.082016 -71.874941 C -82.89949 -138.216107 -268.572281 -232.567001 -208.88133 -276.603584 C -147.114531 -322.171609 -109.945367 -106.655502 -34.807108 -122.334294 C 9.472923 -131.574025 -22.373512 -247.044629 22.858836 -246.686128 C 61.164422 -246.382526 40.720154 -165.294483 70.01863 -140.616367 C 87.186487 -126.155875 114.164478 -129.297532 135.963993 -123.947558 C 173.504505 -114.734474 237.710899 -133.4949 249.913603 -96.817046 C 263.042253 -57.356062 167.853987 -41.564536 169.239663 -0.000001 C 170.818371 47.354718 280.210175 58.07958 268.294339 103.937781 Z " fill="url(#two-97)" stroke="undefined" stroke-width="1" stroke-opacity="1" fill-opacity="1" visibility="visible" stroke-linecap="butt" stroke-linejoin="miter" stroke-miterlimit="4"></path></g></svg>